
<svg
  version="1.0"
  xmlns="http://www.w3.org/2000/svg"
  xmlns:xlink="http://www.w3.org/1999/xlink"
  width="2400"
  height="1800"
>
  
  <rect
    x="0"
    y="0"
    width="100%"
    height="100%"
    fill="#444"
    fill-opacity="1"
  ></rect>
  <svg
    version="1.0"
    xmlns="http://www.w3.org/2000/svg"
    xmlns:xlink="http://www.w3.org/1999/xlink"
    x="0"
    y="0"
    width="2400"
    height="1800"
    viewBox="0 0 340.000000 250.000000"
    preserveAspectRatio="xMidYMid meet"
    color-interpolation-filters="sRGB"
  >
    <defs><linearGradient id="92" x1="0%" y1="0%" x2="100%" y2="0%"><stop offset="0%" stop-color="#fa71cd"/> <stop offset="100%" stop-color="#9b59b6"/></linearGradient><linearGradient id="93" x1="0%" y1="0%" x2="100%" y2="0%"><stop offset="0%" stop-color="#f9d423"/> <stop offset="100%" stop-color="#f83600"/></linearGradient><linearGradient id="94" x1="0%" y1="0%" x2="100%" y2="0%"><stop offset="0%" stop-color="#0064d2"/> <stop offset="100%" stop-color="#1cb0f6"/></linearGradient><linearGradient id="95" x1="0%" y1="0%" x2="100%" y2="0%"><stop offset="0%" stop-color="#f00978"/> <stop offset="100%" stop-color="#3f51b1"/></linearGradient><linearGradient id="96" x1="0%" y1="0%" x2="100%" y2="0%"><stop offset="0%" stop-color="#7873f5"/> <stop offset="100%" stop-color="#ec77ab"/></linearGradient><linearGradient id="97" x1="0%" y1="0%" x2="100%" y2="0%"><stop offset="0%" stop-color="#f9d423"/> <stop offset="100%" stop-color="#e14fad"/></linearGradient><linearGradient id="98" x1="0%" y1="0%" x2="100%" y2="0%"><stop offset="0%" stop-color="#009efd"/> <stop offset="100%" stop-color="#2af598"/></linearGradient><linearGradient id="99" x1="0%" y1="0%" x2="100%" y2="0%"><stop offset="0%" stop-color="#ffcc00"/> <stop offset="100%" stop-color="#00b140"/></linearGradient><linearGradient id="100" x1="0%" y1="0%" x2="100%" y2="0%"><stop offset="0%" stop-color="#d51007"/> <stop offset="100%" stop-color="#ff8177"/></linearGradient><linearGradient id="102" x1="0%" y1="0%" x2="100%" y2="0%"><stop offset="0%" stop-color="#a2b6df"/> <stop offset="100%" stop-color="#0c3483"/></linearGradient><linearGradient id="103" x1="0%" y1="0%" x2="100%" y2="0%"><stop offset="0%" stop-color="#7ac5d8"/> <stop offset="100%" stop-color="#eea2a2"/></linearGradient><linearGradient id="104" x1="0%" y1="0%" x2="100%" y2="0%"><stop offset="0%" stop-color="#00ecbc"/> <stop offset="100%" stop-color="#007adf"/></linearGradient><linearGradient id="105" x1="0%" y1="0%" x2="100%" y2="0%"><stop offset="0%" stop-color="#b88746"/> <stop offset="100%" stop-color="#fdf5a6"/></linearGradient></defs> <g fill="#fff" class="iconblsvg-g iconsvg" transform="translate(40.783416748046875,103.79241371154785)"><g class="tp-name" transform="translate(0,0)"><g transform="translate(0, 3.7705421823586143)"><g transform="scale(1)"><path d="M13.69 0.34C17.59 0.34 21.82-1.23 24.19-4.33L22.46-5.71C20.64-3.3 16.9-2.02 13.69-2.02 8.67-2.02 4.29-5.32 3.79-11.03L25.71-11.03C26.65-20.54 20.54-24.73 13.69-24.73 6.85-24.73 1.33-19.46 1.33-12.17 1.33-4.43 6.85 0.34 13.69 0.34ZM3.79-13.15C4.33-19.11 8.67-22.51 13.69-22.51 19.56-22.51 23.5-19.16 23.55-13.15ZM37.97-34.48L37.97 0 40.38 0 40.38-34.48ZM64.12 0.34C68.01 0.34 72.25-1.23 74.61-4.33L72.89-5.71C71.06-3.3 67.32-2.02 64.12-2.02 59.09-2.02 54.71-5.32 54.22-11.03L76.14-11.03C77.07-20.54 70.97-24.73 64.12-24.73 57.27-24.73 51.75-19.46 51.75-12.17 51.75-4.43 57.27 0.34 64.12 0.34ZM54.22-13.15C54.76-19.11 59.09-22.51 64.12-22.51 69.98-22.51 73.92-19.16 73.97-13.15ZM95.73 0L98.39 0 108.59-24.33 105.93-24.33 97.06-2.81 88.2-24.33 85.54-24.33ZM139.57-24.33L139.57-19.01C137.55-22.81 133.56-24.63 129.62-24.63 122.82-24.63 117.25-19.61 117.25-12.17 117.25-4.73 122.82 0.39 129.62 0.39 133.56 0.39 137.2-1.38 139.57-5.17L139.57 0 141.98 0C141.98-8.13 141.98-16.21 141.98-24.33ZM129.62-22.32C143.16-22.32 143.16-1.97 129.62-1.97 124.1-1.97 119.67-6.06 119.67-12.17 119.67-18.28 124.1-22.32 129.62-22.32ZM156.7-31.43L156.7-24.33 151.53-24.33 151.53-22.32 156.7-22.32 156.7-7.49C156.7-2.71 158.37 0.34 163.55 0.34 165.07 0.34 166.6-0.15 168.13-0.89L167.29-2.86C166.06-2.27 164.73-1.87 163.55-1.87 159.75-1.87 159.06-4.19 159.06-7.49L159.06-22.32 167.34-22.32 167.34-24.33 159.06-24.33 159.06-31.67ZM189.89 0.34C193.78 0.34 198.02-1.23 200.38-4.33L198.66-5.71C196.84-3.3 193.09-2.02 189.89-2.02 184.87-2.02 180.48-5.32 179.99-11.03L201.91-11.03C202.85-20.54 196.74-24.73 189.89-24.73 183.04-24.73 177.53-19.46 177.53-12.17 177.53-4.43 183.04 0.34 189.89 0.34ZM179.99-13.15C180.53-19.11 184.87-22.51 189.89-22.51 195.75-22.51 199.69-19.16 199.74-13.15Z" transform="translate(-1.3300000429153442, 34.47999954223633)"/></g></g> <g transform="translate(203.67596435546875, 0)"><g><g class="imagesvg"><g><rect fill="#fff" fill-opacity="0" stroke-width="2" x="0" y="0" width="47.86721733990149" height="42.41517122999759" class="image-rect"/> <svg filter="url(#colors3396608854)" x="0" y="0" width="47.86721733990149" height="42.41517122999759" filtersec="colorsf6238649606" class="image-svg-svg primary" style="overflow: visible;"><svg xmlns="http://www.w3.org/2000/svg" viewBox="0 0 112.02999877929688 99.2699966430664"><g fill-rule="evenodd"><path fill="#000000" d="M55.92 0l10.8 18.93-32.1 56.67H12.98L55.92 0z"/><path fill="#000000" d="M9.83 81.2L0 99.27h84.3L74.2 81.2H9.83z"/><path fill="#7E3CAC" d="M59.11 43.85l32.47 55.42h20.45L70.1 25.59 59.11 43.85z"/></g></svg></svg> <defs><filter id="colors3396608854"><feColorMatrix type="matrix" values="0 0 0 0 0.99609375  0 0 0 0 0.99609375  0 0 0 0 0.99609375  0 0 0 1 0" class="icon-feColorMatrix "/></filter> <filter id="colorsf6238649606"><feColorMatrix type="matrix" values="0 0 0 0 0.99609375  0 0 0 0 0.99609375  0 0 0 0 0.99609375  0 0 0 1 0" class="icon-fecolormatrix"/></filter> <filter id="colorsb2635027299"><feColorMatrix type="matrix" values="0 0 0 0 0  0 0 0 0 0  0 0 0 0 0  0 0 0 1 0" class="icon-fecolormatrix"/></filter></defs></g></g></g></g> <g fill="#fff" transform="translate(254.54318237304688, 3.7705421823586143)"><g transform="scale(1)"><path d="M5.12-24.43L5.12 0 2.71 0 2.71-24.43ZM2.02-32.27C2.02-29.7 5.91-29.7 5.91-32.27 5.91-34.83 2.02-34.83 2.02-32.27Z" transform="translate(-2.0199999809265137, 34.47999954223633)"/></g></g></g> <g fill-rule="" class="tp-slogan iconsvg-slogansvg" fill="#fff" transform="translate(198.72158336639404,5.415172576904297)"> <g transform="scale(1, 1)"><g transform="scale(1)"><path d="M0.48 0L0.48-0.59Q1.34-1.45 2.02-2.15Q2.69-2.84 3.14-3.44Q3.60-4.03 3.84-4.53Q4.08-5.03 4.08-5.50L4.08-5.50Q4.08-6.16 3.72-6.58Q3.36-7.00 2.63-7.00L2.63-7.00Q2.15-7.00 1.74-6.73Q1.33-6.46 1.00-6.07L1.00-6.07L0.43-6.64Q0.91-7.16 1.45-7.48Q1.99-7.80 2.75-7.80L2.75-7.80Q3.82-7.80 4.43-7.18Q5.04-6.56 5.04-5.54L5.04-5.54Q5.04-5.00 4.81-4.46Q4.57-3.91 4.16-3.33Q3.74-2.75 3.17-2.12Q2.60-1.49 1.92-0.78L1.92-0.78Q2.23-0.80 2.57-0.83Q2.90-0.85 3.20-0.85L3.20-0.85L5.42-0.85L5.42 0L0.48 0Z" transform="translate(-0.432, 7.8)"/></g></g></g></g><defs v-gra="od"/>
  </svg>
</svg>


